<svg width="33" height="32" viewBox="0 0 33 32" fill="none" xmlns="http://www.w3.org/2000/svg">
<path d="M16.5 2.66675C9.15196 2.66675 3.16663 8.65208 3.16663 16.0001C3.16663 23.3481 9.15196 29.3334 16.5 29.3334C23.848 29.3334 29.8333 23.3481 29.8333 16.0001C29.8333 8.65208 23.848 2.66675 16.5 2.66675ZM16.5 5.33341C22.4068 5.33341 27.1666 10.0933 27.1666 16.0001C27.1666 21.3527 23.2537 25.7508 18.125 26.5313V19.1798H21.2291L21.7161 16.0261H18.125V14.3022C18.125 12.9915 18.5519 11.8282 19.7786 11.8282H21.7474V9.0756C21.4007 9.02893 20.6691 8.92716 19.2864 8.92716C16.3984 8.92716 14.7057 10.4525 14.7057 13.9272V16.0261H11.7369V19.1798H14.7057V26.5053C9.66035 25.6545 5.83329 21.2937 5.83329 16.0001C5.83329 10.0933 10.5931 5.33341 16.5 5.33341Z" fill="#252B42"/>
</svg>
