<svg width="33" height="32" viewBox="0 0 33 32" fill="none" xmlns="http://www.w3.org/2000/svg">
<path d="M11.1667 4C7.49067 4 4.5 6.99067 4.5 10.6667V21.3333C4.5 25.0093 7.49067 28 11.1667 28H21.8333C25.5093 28 28.5 25.0093 28.5 21.3333V10.6667C28.5 6.99067 25.5093 4 21.8333 4H11.1667ZM11.1667 6.66667H21.8333C24.0387 6.66667 25.8333 8.46133 25.8333 10.6667V21.3333C25.8333 23.5387 24.0387 25.3333 21.8333 25.3333H11.1667C8.96133 25.3333 7.16667 23.5387 7.16667 21.3333V10.6667C7.16667 8.46133 8.96133 6.66667 11.1667 6.66667ZM23.1667 8C22.813 8 22.4739 8.14048 22.2239 8.39052C21.9738 8.64057 21.8333 8.97971 21.8333 9.33333C21.8333 9.68696 21.9738 10.0261 22.2239 10.2761C22.4739 10.5262 22.813 10.6667 23.1667 10.6667C23.5203 10.6667 23.8594 10.5262 24.1095 10.2761C24.3595 10.0261 24.5 9.68696 24.5 9.33333C24.5 8.97971 24.3595 8.64057 24.1095 8.39052C23.8594 8.14048 23.5203 8 23.1667 8ZM16.5 9.33333C12.824 9.33333 9.83333 12.324 9.83333 16C9.83333 19.676 12.824 22.6667 16.5 22.6667C20.176 22.6667 23.1667 19.676 23.1667 16C23.1667 12.324 20.176 9.33333 16.5 9.33333ZM16.5 12C18.7053 12 20.5 13.7947 20.5 16C20.5 18.2053 18.7053 20 16.5 20C14.2947 20 12.5 18.2053 12.5 16C12.5 13.7947 14.2947 12 16.5 12Z" fill="#252B42"/>
</svg>
