<svg width="33" height="32" viewBox="0 0 33 32" fill="none" xmlns="http://www.w3.org/2000/svg">
<path d="M29.8334 5.33203C28.7934 5.94936 26.7067 6.7907 25.4801 7.03336C25.4441 7.0427 25.4147 7.0547 25.3801 7.06403C24.2961 5.9947 22.8107 5.33203 21.1667 5.33203C17.8534 5.33203 15.1667 8.0187 15.1667 11.332C15.1667 11.5067 15.1521 11.828 15.1667 11.9987C10.6961 11.9987 7.29341 9.65736 4.85341 6.66536C4.58808 7.33203 4.47208 8.38536 4.47208 9.3747C4.47208 11.2427 5.93208 13.0774 8.20541 14.2147C7.78675 14.3227 7.32541 14.4 6.84541 14.4C6.07075 14.4 5.25075 14.196 4.50008 13.5774C4.50008 13.6 4.50008 13.6214 4.50008 13.6454C4.50008 16.256 7.27075 18.0334 9.73475 18.528C9.23475 18.8227 8.22675 18.852 7.73475 18.852C7.38808 18.852 6.16141 18.6934 5.83341 18.632C6.51875 20.772 8.99075 21.9747 11.3467 22.0174C9.50408 23.4627 8.22541 23.9987 4.45208 23.9987H3.16675C5.55075 25.5267 8.58675 26.6667 11.6294 26.6667C21.5361 26.6667 27.1667 19.116 27.1667 11.9987C27.1667 11.884 27.1641 11.644 27.1601 11.4027C27.1601 11.3787 27.1667 11.356 27.1667 11.332C27.1667 11.296 27.1561 11.2614 27.1561 11.2254C27.1521 11.044 27.1481 10.8747 27.1441 10.7867C28.1974 10.0267 29.1107 9.0787 29.8334 7.9987C28.8667 8.42803 27.8294 8.71603 26.7401 8.8467C27.8521 8.18003 29.4321 6.5907 29.8334 5.33203ZM24.5001 11.9987C24.5001 17.4387 20.5574 23.1974 13.2121 23.9227C14.2067 23.2174 15.1667 22.216 15.1667 22.216C15.1667 22.216 11.1667 18.6667 10.8667 14.0294C12.2467 14.4507 13.6841 14.6654 15.1667 14.6654H17.8334V11.332C17.8361 9.49203 19.3267 8.00003 21.1667 8.00003C23.0081 8.00003 24.5001 9.49203 24.5001 11.3334C24.5001 11.3334 24.5001 11.8934 24.5001 11.9987Z" fill="#252B42"/>
</svg>
